<svg width="112" height="113" viewBox="0 0 112 113" fill="none" xmlns="http://www.w3.org/2000/svg">
<g opacity="0.3">
<path d="M30.8748 98.5C28.7842 98.5 27.0046 97.7658 25.5362 96.2973C24.0677 94.8289 23.3335 93.0509 23.3335 90.9633V50.0367C23.3335 47.9522 24.0677 46.1742 25.5362 44.7027C27.0046 43.2342 28.7842 42.5 30.8748 42.5H37.3335V33.1667C37.3335 27.968 39.1457 23.558 42.7702 19.9367C46.3915 16.3122 50.8015 14.5 56.0002 14.5C61.1988 14.5 65.6104 16.3122 69.2348 19.9367C72.8593 23.5611 74.6699 27.9711 74.6668 33.1667V42.5H81.1302C83.2146 42.5 84.9926 43.2342 86.4642 44.7027C87.9326 46.1711 88.6668 47.9507 88.6668 50.0413V90.9633C88.6668 93.0478 87.9326 94.8258 86.4642 96.2973C84.9957 97.7658 83.2177 98.5 81.1302 98.5H30.8748ZM30.8748 93.8333H81.1302C81.9671 93.8333 82.6546 93.5642 83.1928 93.026C83.7311 92.4878 84.0002 91.8002 84.0002 90.9633V50.0367C84.0002 49.1998 83.7311 48.5122 83.1928 47.974C82.6546 47.4358 81.9671 47.1667 81.1302 47.1667H30.8702C30.0333 47.1667 29.3457 47.4358 28.8075 47.974C28.2693 48.5122 28.0002 49.2013 28.0002 50.0413V90.9633C28.0002 91.8002 28.2693 92.4878 28.8075 93.026C29.3457 93.5642 30.0348 93.8333 30.8748 93.8333ZM56.0002 77.5C57.9695 77.5 59.6277 76.8249 60.9748 75.4747C62.3251 74.1276 63.0002 72.4693 63.0002 70.5C63.0002 68.5307 62.3251 66.8724 60.9748 65.5253C59.6246 64.1782 57.9664 63.5031 56.0002 63.5C54.0339 63.4969 52.3757 64.172 51.0255 65.5253C49.6753 66.8724 49.0002 68.5307 49.0002 70.5C49.0002 72.4693 49.6753 74.1276 51.0255 75.4747C52.3726 76.8249 54.0308 77.5 56.0002 77.5ZM42.0002 42.5H70.0002V33.1667C70.0002 29.2778 68.6391 25.9722 65.9168 23.25C63.1946 20.5278 59.8891 19.1667 56.0002 19.1667C52.1113 19.1667 48.8057 20.5278 46.0835 23.25C43.3613 25.9722 42.0002 29.2778 42.0002 33.1667V42.5Z" fill="#767680"/>
</g>
</svg>
